<svg xmlns="http://www.w3.org/2000/svg"><symbol fill="none" id="sprite-arrow-down-bold" viewBox="0 0 16 10"><path fill-rule="evenodd" clip-rule="evenodd" d="M.455.597a1.123 1.123 0 0 1 1.59 0L8 6.55 13.954.597a1.125 1.125 0 0 1 1.591 1.59L8 9.734.455 2.188a1.125 1.125 0 0 1 0-1.591Z" fill="currentcolor"/></symbol><symbol fill="none" id="sprite-arrow" viewBox="0 0 10 16"><path d="m1.571 14.857 6.857-7.314-6.857-6.4" stroke="#000" stroke-width="1.714"/></symbol><symbol fill="none" id="sprite-book" viewBox="0 0 22 18"><path d="M11 3S9.5 1 6 1 1 3 1 3v14s1.5-1 5-1 5 1 5 1m0-14v14m0-14s1.5-2 5-2 5 2 5 2v14s-1.5-1-5-1-5 1-5 1" stroke="#181818" stroke-width="2" stroke-linecap="round" stroke-linejoin="round"/></symbol><symbol fill="none" id="sprite-checkmark" viewBox="0 0 10 8"><path d="M9.79.47a.778.778 0 0 1 0 1.062l-5.714 6a.692.692 0 0 1-1.012 0l-2.857-3a.778.778 0 0 1 0-1.062.692.692 0 0 1 1.011 0l2.353 2.468L8.781.47a.692.692 0 0 1 1.011 0H9.79Z" fill="#FBFBFB"/></symbol><symbol fill="none" id="sprite-cross" viewBox="0 0 14 14"><path d="M13.773 1.288 8.06 7l5.713 5.712-1.061 1.061L7 8.061l-5.713 5.712-1.06-1.06L5.939 7 .227 1.288l1.06-1.06L7 5.938 12.712.227l1.06 1.06Z" fill="currentcolor"/></symbol><symbol fill="none" id="sprite-email" viewBox="0 0 20 20"><path d="M19 10a9 9 0 1 0-6.67 8.693" stroke="#000" stroke-width="2" stroke-linecap="round"/><path d="M10 14a4 4 0 1 0 0-8 4 4 0 0 0 0 8Z" stroke="#000" stroke-width="2"/><path d="M14 7v4.5a2.5 2.5 0 0 0 5 0V10" stroke="#000" stroke-width="2" stroke-linecap="round"/></symbol><symbol fill="none" id="sprite-logo" viewBox="0 0 115 55"><g clip-path="url(#a)"><path d="M77.05 31.257c.661 0 1.318.054 1.971.188 1.627.332 2.731 1.3 3.45 2.76.431.876.618 1.815.623 2.786.012 3.308.02 6.616.014 9.925-.004 1.24-.149 2.461-.669 3.606-1.12 2.46-3.026 3.887-5.695 4.295-.86.132-1.73.157-2.599.157H60.173c-.065 0-.13-.004-.195 0-.153.01-.21-.067-.202-.211.003-.064 0-.13 0-.195l-.018-7.472c0-.053.004-.105 0-.156-.021-.18.045-.272.236-.257.104.008.209 0 .312 0 4.334 0 8.668 0 13-.003.54 0 .476.051.478-.478.004-2.583.004-7.926.009-8.018.007-.148-.056-.214-.206-.207-.103.005-9.004-.05-13.35-.046-.518 0-.466.048-.466-.45.002-1.92.006-3.84.01-5.76 0-.079.005-.157 0-.235-.008-.161.056-.244.226-.233.103.006.206 0 .311 0 2.932 0 14.09-.006 16.737 0l-.005.003v.001ZM60.023 25.77h32.886v1.277H60.023a.272.272 0 0 1-.273-.272v-.733c0-.15.121-.271.273-.271v-.002Zm0 2.103h32.886v1.665H60.023a.273.273 0 0 1-.273-.27v-1.124c0-.15.121-.271.273-.271ZM.277 25.769h4.87v1.277H.276A.274.274 0 0 1 0 26.774v-.733c0-.15.124-.27.277-.27v-.002Zm0 2.103h4.878v1.666H.277A.275.275 0 0 1 0 29.266v-1.123c0-.15.124-.27.277-.27Zm114.445-.825h-4.874V25.77h4.874c.153 0 .279.12.279.27v.734c0 .15-.124.271-.279.271v.002Zm-.002 2.491h-4.884v-1.665h4.884c.153 0 .278.121.278.271v1.123c0 .15-.124.271-.278.271Zm-71.417-2.489H21.824v-1.277h21.48c.139 0 .251.12.251.27v.734c0 .15-.112.271-.252.271v.002Zm.002 2.489h-21.52v-1.665h21.52c.14 0 .252.121.252.271v1.123c0 .15-.113.271-.252.271Zm-8.944 1.549h9.048c.117 0 .213.096.213.213v23.495a.214.214 0 0 1-.213.213h-9.048a.214.214 0 0 1-.213-.213V31.3c0-.117.096-.213.213-.213Zm14.801-1.028c1.161.003 4.543.055 5.059.055-.339.67-1.438 2.677-2.418 3.944-.05.057-.08.067-.112.067-.034 0-.055-.009-.113-.066-1.06-1.455-2.4-3.952-2.418-4h.002Z" fill="#F85F00"/><path d="M5.566 14.81h2.73c.21 0 .38.171.38.381v21.904H5.569L5.566 14.81Zm4.974-2.333h4.23c.21 0 .382.17.382.38v25.84h-4.613v-26.22Zm6.362 0h4.835c.21 0 .38.17.38.38v25.84h-5.215v-26.22Zm92.324 24.618h-3.109V15.19c0-.21.171-.38.381-.38h2.73v22.284h-.002Zm-4.973 1.602h-4.612v-25.84c0-.21.17-.38.38-.38h4.232v26.22Zm-6.363 0h-5.214v-25.84c0-.21.17-.38.38-.38h4.835v26.22ZM43.566 20.678c-.106.044-.069.119-.064.17.064.712.037 1.427.045 2.139.003.316-.005.322-.325.32-1.377-.01-7.085-.03-8.564-.03-.09 0-.182-.004-.273 0-.135.005-.184-.062-.183-.188.003-.117 0-.234 0-.351 0-6.359.009-20.632-.042-21.41-.024-.363-.013-.367.354-.367 2.583-.003 5.165 0 7.747-.017.268 0 .39.104.506.315 1.405 2.529 2.824 5.048 4.223 7.58 1.099 1.988 2.27 3.932 3.4 5.9.361.63.538.933.862 1.582.022.045.229.418.26.464.128-.099.173-.236.24-.355 2.688-4.723 5.365-9.452 7.928-14.245.177-.331.386-.646.558-.98.11-.213.252-.28.49-.276 1.466.03 2.932.063 4.398.059C67.838.98 70.55.944 73.261.923c1.051-.007 2.1-.015 3.145.145 2.09.323 3.77 1.336 5.073 2.98 1.05 1.327 1.643 2.837 1.724 4.542.034.741.052 6.785.054 7.354 0 .315-.005.32-.324.32-1.803 0-3.608-.003-5.412-.005a747.1 747.1 0 0 1-3.347-.006c-.337 0-.34-.006-.337-.346.025-1.985.048-3.97-.005-5.955-.002-.092-.005-.182-.005-.273.001-.125-.049-.192-.18-.2-.195-.01-3.514-.05-4.982-.05-.323 0-.332.007-.334.36a3447.76 3447.76 0 0 0-.018 13.588c0 .433.051.428-.415.427-2.595-.01-5.191-.017-7.786-.024-.078 0-.156 0-.234-.005-.094-.003-.14-.055-.14-.148-.002-.09-.004-.181-.004-.273-.003-.856-.004-1.713-.012-2.57 0-.15.027-.31-.066-.447-.064.009-4.726 8.584-5.459 9.823-1.884 0-2.806 0-5.01-.046 0 0-5.552-9.328-5.62-9.436Z" fill="#F70"/><path d="M4.953 40.611V15.163c0-.195.158-.353.352-.353h.26v26.154h-.26a.352.352 0 0 1-.352-.353Zm.612.353h2.762a.348.348 0 0 0 .348-.348V27.95H5.566v13.013h-.001Zm4.838 1.648h.26V12.477h-.26a.352.352 0 0 0-.352.352v29.433c0 .194.158.352.352.352v-.002Zm-.27.108h4.669a.348.348 0 0 0 .347-.347V27.87h-5.017v14.85Zm6.6-.156h.26V12.477h-.26a.352.352 0 0 0-.352.352v29.385c0 .194.158.352.353.352v-.002Zm-.046 0h5.08a.348.348 0 0 0 .348-.347V27.87h-5.428v14.694Zm93.148-1.954V15.163a.352.352 0 0 0-.352-.353h-.26v26.154h.26a.352.352 0 0 0 .352-.353v-.001Zm-.306-12.739h-3.415v12.743c0 .192.156.348.348.348h3.069l-.002-13.09Zm-4.792 14.39V12.828a.352.352 0 0 0-.352-.352h-.26v30.137h.26a.352.352 0 0 0 .352-.352v-.002Zm-.306-14.312h-4.792v14.316c0 .191.156.347.348.347h4.444V27.95Zm-6.025 14.263V12.83a.352.352 0 0 0-.352-.352h-.259v30.089h.26a.352.352 0 0 0 .351-.352v-.002Zm-.305-14.263h-5.428v14.268c0 .191.156.347.348.347h5.08V27.95Z" fill="#F85F00"/></g><defs><clipPath id="a"><path fill="#fff" transform="translate(0 .92)" d="M0 0h115v54.088H0z"/></clipPath></defs></symbol><symbol fill="none" id="sprite-online" viewBox="0 0 24 24"><path d="M10.758 22.043a7.087 7.087 0 0 0-.176.902 11.97 11.97 0 0 0-.082.938 11.61 11.61 0 0 1-5.379-2.051 12.142 12.142 0 0 1-3.726-4.242 12.287 12.287 0 0 1-1.032-2.672A11.62 11.62 0 0 1 0 12c0-1.102.14-2.164.422-3.188a11.82 11.82 0 0 1 1.207-2.87c.523-.891 1.148-1.7 1.875-2.426A11.91 11.91 0 0 1 5.94 1.64 12.137 12.137 0 0 1 8.801.434 12.168 12.168 0 0 1 12 0a11.762 11.762 0 0 1 6.046 1.641 12.185 12.185 0 0 1 2.427 1.875 12.38 12.38 0 0 1 1.886 2.437c.54.906.942 1.86 1.207 2.86.266 1 .41 2.062.434 3.187h-.832c-.11-.18-.223-.355-.34-.527a3.426 3.426 0 0 0-.41-.493A8.86 8.86 0 0 0 22.055 9H7.699c-.062.5-.11.996-.14 1.488A30.63 30.63 0 0 0 7.5 12c0 .508.016 1.008.047 1.5s.082.992.152 1.5H12c0 .25.02.5.059.75.039.25.09.5.152.75H7.957c.094.445.219.934.375 1.465s.352 1.05.586 1.558c.234.508.504.985.809 1.43.304.445.648.809 1.03 1.09ZM21.48 7.5a10.806 10.806 0 0 0-1.079-1.781 9.978 9.978 0 0 0-1.406-1.524 12.033 12.033 0 0 0-1.664-1.23 9.15 9.15 0 0 0-1.898-.88c.28.392.53.806.75 1.243.218.438.418.887.597 1.348.18.46.332.93.457 1.406.125.477.235.95.328 1.418h3.915ZM12 1.5c-.39 0-.75.105-1.078.316a3.96 3.96 0 0 0-.914.832c-.281.344-.531.73-.75 1.16-.219.43-.418.872-.598 1.325-.18.453-.324.883-.433 1.289-.11.406-.2.766-.27 1.078h8.086a15.42 15.42 0 0 0-.703-2.367 13.982 13.982 0 0 0-.586-1.313 6.82 6.82 0 0 0-.75-1.172 3.536 3.536 0 0 0-.926-.832A2.135 2.135 0 0 0 12 1.5Zm-3.422.574a10.47 10.47 0 0 0-1.898.867 9.94 9.94 0 0 0-1.676 1.23c-.516.47-.984.981-1.406 1.536A9.665 9.665 0 0 0 2.52 7.5h3.914c.086-.43.191-.887.316-1.371s.281-.969.469-1.453c.187-.485.39-.95.61-1.395a6.8 6.8 0 0 1 .75-1.207ZM1.5 12c0 1.04.145 2.04.434 3h4.254a23.853 23.853 0 0 1-.14-4.5c.03-.492.077-.992.14-1.5H1.934c-.29.96-.434 1.96-.434 3Zm.996 4.5c.305.633.664 1.227 1.078 1.781a10.44 10.44 0 0 0 1.406 1.535 9.848 9.848 0 0 0 1.688 1.22c.602.343 1.234.636 1.898.878a9.048 9.048 0 0 1-.75-1.242 16.025 16.025 0 0 1-.597-1.348c-.18-.46-.332-.93-.457-1.406a33.79 33.79 0 0 1-.34-1.418H2.496Zm18.152 2.121c.508.258.97.574 1.383.95.414.374.766.796 1.055 1.265.289.469.516.969.68 1.5.164.531.242 1.086.234 1.664h-1.5c0-.617-.117-1.2-.352-1.746a4.513 4.513 0 0 0-2.402-2.402A4.18 4.18 0 0 0 18 19.5a4.32 4.32 0 0 0-1.746.352 4.695 4.695 0 0 0-1.43.96 4.388 4.388 0 0 0-.972 1.442A4.44 4.44 0 0 0 13.5 24H12c0-.57.078-1.121.234-1.652a6.369 6.369 0 0 1 .668-1.512c.29-.477.641-.898 1.055-1.266a6.88 6.88 0 0 1 1.383-.949 4.342 4.342 0 0 1-1.36-1.582A4.452 4.452 0 0 1 13.5 15c0-.617.117-1.2.352-1.746a4.513 4.513 0 0 1 .96-1.43 4.69 4.69 0 0 1 1.43-.972A4.16 4.16 0 0 1 18 10.5c.617 0 1.2.117 1.746.352a4.513 4.513 0 0 1 2.402 2.402A4.18 4.18 0 0 1 22.5 15a4.427 4.427 0 0 1-1.852 3.621ZM18 18c.414 0 .8-.078 1.16-.234.36-.157.68-.371.961-.645a2.81 2.81 0 0 0 .645-.95c.148-.358.226-.75.234-1.171 0-.414-.078-.8-.234-1.16a3.196 3.196 0 0 0-.645-.961 2.805 2.805 0 0 0-.95-.645A3.196 3.196 0 0 0 18 12c-.414 0-.8.078-1.16.234a3.19 3.19 0 0 0-.961.645 2.81 2.81 0 0 0-.645.95c-.148.358-.226.75-.234 1.171 0 .414.078.8.234 1.16.157.36.371.68.645.961.273.281.59.496.95.645.358.148.75.226 1.171.234Z" fill="#282828"/></symbol><symbol fill="none" id="sprite-pdf" viewBox="0 0 22 24"><path d="M3 10.4v-.8h-.8v.8H3Zm6.4 0v-.8h-.8v.8h.8Zm0 6.4h-.8v.8h.8v-.8ZM20.6 5.6h.8v-.331l-.234-.235-.566.566ZM15.8.8l.566-.566L16.131 0H15.8v.8ZM3 11.2h1.6V9.6H3v1.6Zm.8 6.4v-4H2.2v4h1.6Zm0-4v-3.2H2.2v3.2h1.6Zm.8-.8H3v1.6h1.6v-1.6Zm.8-.8a.8.8 0 0 1-.8.8v1.6A2.4 2.4 0 0 0 7 12H5.4Zm-.8-.8a.8.8 0 0 1 .8.8H7a2.4 2.4 0 0 0-2.4-2.4v1.6Zm4-.8v6.4h1.6v-6.4H8.6Zm.8 7.2H11V16H9.4v1.6Zm4-2.4V12h-1.6v3.2h1.6ZM11 9.6H9.4v1.6H11V9.6Zm2.4 2.4A2.4 2.4 0 0 0 11 9.6v1.6a.8.8 0 0 1 .8.8h1.6ZM11 17.6a2.4 2.4 0 0 0 2.4-2.4h-1.6a.8.8 0 0 1-.8.8v1.6Zm4-8v8h1.6v-8H15Zm.8 1.6h4V9.6h-4v1.6Zm0 3.2h2.4v-1.6h-2.4v1.6ZM2.2 8V2.4H.6V8h1.6Zm17.6-2.4V8h1.6V5.6h-1.6ZM3 1.6h12.8V0H3v1.6Zm12.233-.234 4.8 4.8 1.133-1.132-4.8-4.8-1.133 1.132ZM2.2 2.4a.8.8 0 0 1 .8-.8V0A2.4 2.4 0 0 0 .6 2.4h1.6ZM.6 19.2v2.4h1.6v-2.4H.6ZM3 24h16v-1.6H3V24Zm18.4-2.4v-2.4h-1.6v2.4h1.6ZM19 24a2.4 2.4 0 0 0 2.4-2.4h-1.6a.8.8 0 0 1-.8.8V24ZM.6 21.6A2.4 2.4 0 0 0 3 24v-1.6a.8.8 0 0 1-.8-.8H.6Z" fill="#000"/></symbol><symbol fill="none" id="sprite-person" viewBox="0 0 24 24"><path d="M12 12c-1.65 0-3.063-.588-4.237-1.762C6.588 9.063 6 7.65 6 6c0-1.65.588-3.063 1.763-4.237C8.938.588 10.35 0 12 0s3.063.588 4.238 1.762C17.413 2.938 18 4.35 18 6c0 1.65-.587 3.063-1.762 4.238C15.063 11.413 13.65 12 12 12ZM0 24v-4.2c0-.85.219-1.631.657-2.343A4.394 4.394 0 0 1 2.4 15.825a22.24 22.24 0 0 1 4.725-1.743 20.717 20.717 0 0 1 9.75 0c1.6.389 3.175.97 4.725 1.743a4.378 4.378 0 0 1 1.744 1.632c.438.713.657 1.494.656 2.343V24H0Zm3-3h18v-1.2a1.45 1.45 0 0 0-.75-1.275 19.522 19.522 0 0 0-4.087-1.518A17.478 17.478 0 0 0 12 16.5c-1.4-.001-2.787.168-4.162.507a19.748 19.748 0 0 0-4.088 1.518c-.225.125-.406.3-.545.525A1.396 1.396 0 0 0 3 19.8V21Zm9-12c.825 0 1.531-.293 2.12-.88A2.882 2.882 0 0 0 15 6a2.892 2.892 0 0 0-.88-2.118A2.9 2.9 0 0 0 12 3a2.863 2.863 0 0 0-2.118.882A2.918 2.918 0 0 0 9 6c-.003.822.291 1.529.882 2.12.591.59 1.297.884 2.118.88Z" fill="#181818"/></symbol><symbol id="sprite-spinner" viewBox="0 0 21 20"><path fill-rule="evenodd" clip-rule="evenodd" d="M10.5 1c0 .414-.337.746-.75.784a8.25 8.25 0 1 0 8.966 8.965c.038-.412.37-.749.784-.749.414 0 .753.337.722.75-.383 5.034-4.59 9-9.722 9A9.75 9.75 0 0 1 .75 10c0-5.132 3.966-9.339 9-9.722.413-.031.75.308.75.722Z" fill="currentcolor"/></symbol><symbol id="sprite-telegram" viewBox="0 0 24 22"><path fill-rule="evenodd" clip-rule="evenodd" d="M23.976 2.146a1.9 1.9 0 0 0-.097-.968 1.843 1.843 0 0 0-.561-.782 1.742 1.742 0 0 0-1.805-.251L1.095 9.005c-1.423.619-1.496 2.74 0 3.38a66.817 66.817 0 0 0 4.506 1.745c1.395.475 2.916.915 4.135 1.039.333.41.752.807 1.18 1.169.653.554 1.439 1.123 2.25 1.67 1.627 1.095 3.431 2.143 4.647 2.824 1.453.813 3.192-.123 3.453-1.756l2.71-16.93ZM3.384 10.683l18.058-7.837-2.529 15.802c-1.192-.668-2.91-1.669-4.441-2.7a23.886 23.886 0 0 1-2.04-1.513 9.624 9.624 0 0 1-.51-.46l4.73-4.873a1.25 1.25 0 0 0 .35-.87c0-.327-.125-.64-.35-.871a1.177 1.177 0 0 0-.844-.36c-.316 0-.62.129-.844.36l-5.179 5.337c-.876-.116-2.097-.45-3.436-.906a57.465 57.465 0 0 1-2.964-1.11l-.001.001Z"/></symbol><symbol fill="none" id="sprite-whatsapp" viewBox="0 0 20 20"><path d="M17.05 2.91A9.82 9.82 0 0 0 10.04 0C4.58 0 .13 4.45.13 9.91c0 1.75.46 3.45 1.32 4.95L.05 20l5.25-1.38c1.45.79 3.08 1.21 4.74 1.21 5.46 0 9.91-4.45 9.91-9.91 0-2.65-1.03-5.14-2.9-7.01Zm-7.01 15.24c-1.48 0-2.93-.4-4.2-1.15l-.3-.18-3.12.82.83-3.04-.2-.31a8.26 8.26 0 0 1-1.26-4.38c0-4.54 3.7-8.24 8.24-8.24 2.2 0 4.27.86 5.82 2.42a8.18 8.18 0 0 1 2.41 5.83c.02 4.54-3.68 8.23-8.22 8.23Zm4.52-6.16c-.25-.12-1.47-.72-1.69-.81-.23-.08-.39-.12-.56.12-.17.25-.64.81-.78.97-.14.17-.29.19-.54.06-.25-.12-1.05-.39-1.99-1.23-.74-.66-1.23-1.47-1.38-1.72-.14-.25-.02-.38.11-.51.11-.11.25-.29.37-.43s.17-.25.25-.41c.08-.17.04-.31-.02-.43s-.56-1.34-.76-1.84c-.2-.48-.41-.42-.56-.43h-.48c-.17 0-.43.06-.66.31-.22.25-.86.85-.86 2.07 0 1.22.89 2.4 1.01 2.56.12.17 1.75 2.67 4.23 3.74.59.26 1.05.41 1.41.52.59.19 1.13.16 1.56.1.48-.07 1.47-.6 1.67-1.18.21-.58.21-1.07.14-1.18-.07-.11-.22-.16-.47-.28Z" fill="#000"/></symbol></svg>