<svg width="115" height="55" viewBox="0 0 115 55" fill="none" xmlns="http://www.w3.org/2000/svg">
<g clip-path="url(#clip0_636_267)">
<path d="M77.0501 31.2572C77.7111 31.2572 78.3677 31.3111 79.0212 31.4445C80.6476 31.7773 81.7524 32.7457 82.4704 34.2042C82.9021 35.0811 83.0895 36.0195 83.094 36.9908C83.106 40.2991 83.1135 43.6074 83.1075 46.9157C83.1045 48.1553 82.9591 49.377 82.439 50.5223C81.3192 52.9821 79.4125 54.4092 76.7443 54.8169C75.8838 54.9488 75.0144 54.9743 74.145 54.9743H60.1729C60.1084 54.9743 60.0424 54.9698 59.978 54.9743C59.8251 54.9848 59.7681 54.9068 59.7756 54.7629C59.7786 54.6985 59.7756 54.6325 59.7756 54.5681C59.7696 52.0767 59.7636 49.5869 59.7576 47.0956C59.7576 47.0431 59.7621 46.9906 59.7576 46.9397C59.7367 46.7598 59.8026 46.6683 59.9945 46.6833C60.0979 46.6908 60.2028 46.6833 60.3063 46.6833C64.6399 46.6833 68.9735 46.6833 73.3056 46.6803C73.8467 46.6803 73.7822 46.7313 73.7837 46.2022C73.7882 43.6194 73.7882 38.2755 73.7927 38.184C73.8002 38.0356 73.7373 37.9697 73.5874 37.9772C73.4839 37.9817 64.5829 37.9277 60.2373 37.9307C59.7187 37.9307 59.7711 37.9787 59.7711 37.481C59.7726 35.5608 59.7771 33.6406 59.7816 31.7204C59.7816 31.6424 59.7861 31.5645 59.7816 31.4865C59.7726 31.3246 59.8371 31.2422 60.0065 31.2527C60.1099 31.2587 60.2133 31.2527 60.3183 31.2527C63.2503 31.2527 74.4073 31.2467 77.0546 31.2527L77.0501 31.2557V31.2572Z" fill="#F85F00"/>
<path d="M60.0228 25.7695H92.9093V27.0467H60.0228C59.8714 27.0467 59.75 26.9253 59.75 26.7754V26.0423C59.75 25.8925 59.8714 25.771 60.0228 25.771V25.7695Z" fill="#F85F00"/>
<path d="M60.0228 27.873H92.9093V29.5384H60.0228C59.8729 29.5384 59.75 29.417 59.75 29.2671V28.1444C59.75 27.9945 59.8714 27.873 60.0228 27.873Z" fill="#F85F00"/>
<path d="M0.277314 25.7686H5.14605V27.0457H0.277314C0.124417 27.0457 0 26.9243 0 26.7744V26.0414C0 25.8915 0.124417 25.7701 0.277314 25.7701V25.7686Z" fill="#F85F00"/>
<path d="M0.277314 27.8721H5.15505V29.5375H0.277314C0.124417 29.5375 0 29.416 0 29.2661V28.1434C0 27.9935 0.124417 27.8721 0.277314 27.8721Z" fill="#F85F00"/>
<path d="M114.722 27.0467H109.848V25.7695H114.722C114.875 25.7695 115.001 25.8909 115.001 26.0408V26.7739C115.001 26.9238 114.877 27.0452 114.722 27.0452V27.0467Z" fill="#F85F00"/>
<path d="M114.72 29.5384H109.836V27.873H114.72C114.873 27.873 114.998 27.9945 114.998 28.1444V29.2671C114.998 29.417 114.874 29.5384 114.72 29.5384Z" fill="#F85F00"/>
<path d="M43.3033 27.0486H21.8242V25.7715H43.3033C43.4427 25.7715 43.5552 25.8929 43.5552 26.0428V26.7758C43.5552 26.9257 43.4427 27.0471 43.3033 27.0471V27.0486Z" fill="#F85F00"/>
<path d="M43.3047 29.5384H21.7852V27.873H43.3047C43.4442 27.873 43.5566 27.9945 43.5566 28.1444V29.2671C43.5566 29.417 43.4442 29.5384 43.3047 29.5384Z" fill="#F85F00"/>
<path d="M34.3613 31.0869H43.4092C43.5262 31.0869 43.6221 31.1828 43.6221 31.2998V54.795C43.6221 54.912 43.5262 55.0079 43.4092 55.0079H34.3613C34.2444 55.0079 34.1484 54.912 34.1484 54.795V31.2998C34.1484 31.1828 34.2444 31.0869 34.3613 31.0869Z" fill="#F85F00"/>
<path d="M49.1617 30.0586C50.3234 30.0616 53.7051 30.1141 54.2208 30.1141C53.882 30.7841 52.7832 32.7913 51.8029 34.0579C51.7534 34.1149 51.7234 34.1254 51.6905 34.1254C51.6575 34.1254 51.6365 34.1164 51.578 34.0594C50.5182 32.6039 49.1781 30.1066 49.1602 30.0586H49.1617Z" fill="#F85F00"/>
<path d="M5.56641 14.8105H8.29608C8.50594 14.8105 8.67682 14.9814 8.67682 15.1913V37.0946H5.5679L5.56641 14.8105Z" fill="#FF7700"/>
<path d="M10.5391 12.4766H14.7707C14.9806 12.4766 15.1515 12.6474 15.1515 12.8573V38.697H10.5391V12.4766Z" fill="#FF7700"/>
<path d="M16.9023 12.4766H21.7366C21.9465 12.4766 22.1174 12.6474 22.1174 12.8573V38.697H16.9023V12.4766Z" fill="#FF7700"/>
<path d="M109.226 37.0946H106.117V15.1913C106.117 14.9814 106.288 14.8105 106.498 14.8105H109.228V37.0946H109.226Z" fill="#FF7700"/>
<path d="M104.253 38.697H99.6406V12.8573C99.6406 12.6474 99.8115 12.4766 100.021 12.4766H104.253V38.697Z" fill="#FF7700"/>
<path d="M97.8908 38.697H92.6758V12.8573C92.6758 12.6474 92.8467 12.4766 93.0565 12.4766H97.8908V38.697Z" fill="#FF7700"/>
<path d="M43.5663 20.6784C43.4599 20.7218 43.4973 20.7968 43.5018 20.8477C43.5663 21.5598 43.5393 22.2748 43.5468 22.9868C43.5498 23.3031 43.5423 23.3091 43.2215 23.3061C41.8454 23.2971 36.1373 23.2761 34.6577 23.2776C34.5678 23.2776 34.4764 23.2731 34.3849 23.2776C34.25 23.2821 34.2005 23.2147 34.202 23.0887C34.205 22.9718 34.202 22.8549 34.202 22.738C34.202 16.3792 34.211 2.1058 34.1601 1.32782C34.1361 0.965061 34.1466 0.960564 34.5138 0.960564C37.0966 0.957566 39.6794 0.960564 42.2606 0.944075C42.529 0.944075 42.6504 1.04751 42.7673 1.25886C44.1719 3.78767 45.5914 6.30748 46.99 8.83929C48.0887 10.827 49.2595 12.7712 50.3897 14.7393C50.751 15.3689 50.9278 15.6717 51.2516 16.3208C51.2741 16.3657 51.481 16.739 51.5125 16.7855C51.6399 16.6865 51.6848 16.5486 51.7523 16.4302C54.44 11.7069 57.1172 6.97754 59.6805 2.18524C59.8574 1.85397 60.0657 1.53918 60.2381 1.2049C60.3475 0.992043 60.4899 0.924588 60.7283 0.929085C62.1943 0.959065 63.6603 0.992043 65.1263 0.987546C67.838 0.980051 70.5497 0.944075 73.2614 0.923089C74.3122 0.915594 75.3615 0.908099 76.4063 1.06849C78.4959 1.39078 80.1763 2.4041 81.4789 4.0485C82.5297 5.37511 83.1218 6.8846 83.2027 8.59046C83.2372 9.33096 83.2552 15.3749 83.2567 15.9445C83.2567 16.2593 83.2522 16.2638 82.9329 16.2638C81.1296 16.2638 79.3248 16.2608 77.5215 16.2593C76.4063 16.2593 75.2895 16.2578 74.1743 16.2533C73.837 16.2533 73.834 16.2473 73.837 15.9071C73.8625 13.9224 73.885 11.9362 73.8325 9.95154C73.8295 9.86011 73.8265 9.77017 73.8265 9.67873C73.828 9.55431 73.7785 9.48685 73.6466 9.47936C73.4518 9.46887 70.133 9.42989 68.6655 9.42989C68.3417 9.42989 68.3327 9.43589 68.3312 9.78965C68.3177 12.1116 68.3087 21.17 68.3132 23.3766C68.3132 23.8098 68.3642 23.8053 67.898 23.8038C65.3032 23.7948 62.707 23.7873 60.1122 23.7798C60.0342 23.7798 59.9563 23.7798 59.8784 23.7753C59.7839 23.7723 59.7389 23.7198 59.7374 23.6269C59.7359 23.5369 59.7345 23.4455 59.7345 23.3541C59.7315 22.4981 59.73 21.6407 59.7225 20.7848C59.7225 20.6349 59.7494 20.4745 59.6565 20.3366C59.592 20.3456 54.9302 28.9213 54.1972 30.1595C52.3129 30.1595 51.391 30.1595 49.1875 30.1145C49.1875 30.1145 43.6352 20.7863 43.5663 20.6784Z" fill="#FF7700"/>
<path d="M4.95312 40.6112V15.1628C4.95312 14.9679 5.11052 14.8105 5.30539 14.8105H5.56472V40.9635H5.30539C5.11052 40.9635 4.95312 40.8061 4.95312 40.6112ZM5.56472 40.9635H8.32737C8.51924 40.9635 8.67513 40.8076 8.67513 40.6157V27.9507H5.56621V40.9635H5.56472ZM10.4035 42.6124H10.6628V12.4766H10.4035C10.2086 12.4766 10.0512 12.634 10.0512 12.8288V42.2616C10.0512 42.4565 10.2086 42.6139 10.4035 42.6139V42.6124ZM10.1322 42.7203H14.8015C14.9934 42.7203 15.1493 42.5644 15.1493 42.3725V27.8698H10.1322V42.7203ZM16.7337 42.5644H16.9931V12.4766H16.7337C16.5389 12.4766 16.3815 12.634 16.3815 12.8288V42.2137C16.3815 42.4085 16.5389 42.5659 16.7337 42.5659V42.5644ZM16.6873 42.5644H21.7674C21.9592 42.5644 22.1151 42.4085 22.1151 42.2166V27.8698H16.6873V42.5644ZM109.835 40.6097V15.1628C109.835 14.9679 109.677 14.8105 109.483 14.8105H109.223V40.9635H109.483C109.677 40.9635 109.835 40.8061 109.835 40.6112V40.6097ZM109.529 27.8713H106.114V40.6142C106.114 40.8061 106.27 40.962 106.462 40.962H109.531L109.529 27.8713ZM104.737 42.2601V12.8288C104.737 12.634 104.579 12.4766 104.385 12.4766H104.125V42.6139H104.385C104.579 42.6139 104.737 42.4565 104.737 42.2616V42.2601ZM104.431 27.9492H99.6387V42.2646C99.6387 42.4565 99.7946 42.6124 99.9865 42.6124H104.431V27.9492ZM98.4065 42.2122V12.8288C98.4065 12.634 98.2492 12.4766 98.0543 12.4766H97.795V42.5659H98.0543C98.2492 42.5659 98.4065 42.4085 98.4065 42.2137V42.2122ZM98.1008 27.9492H92.6729V42.2166C92.6729 42.4085 92.8288 42.5644 93.0207 42.5644H98.1008V27.9492Z" fill="#F85F00"/>
</g>
<defs>
<clipPath id="clip0_636_267">
<rect width="115" height="54.0883" fill="white" transform="translate(0 0.919922)"/>
</clipPath>
</defs>
</svg>
