<svg width="21" height="20" viewBox="0 0 21 20" xmlns="http://www.w3.org/2000/svg">
<path fill-rule="evenodd" clip-rule="evenodd" d="M10.5 1C10.5 1.41421 10.1631 1.74643 9.75056 1.78358C5.54542 2.16224 2.25 5.69628 2.25 10C2.25 14.5563 5.94365 18.25 10.5 18.25C14.8037 18.25 18.3378 14.9546 18.7164 10.7494C18.7536 10.3369 19.0858 10 19.5 10C19.9142 10 20.253 10.337 20.2216 10.75C19.8386 15.7843 15.6324 19.75 10.5 19.75C5.11522 19.75 0.75 15.3848 0.75 10C0.75 4.86757 4.71567 0.661379 9.75001 0.278416C10.163 0.246998 10.5 0.585786 10.5 1Z" fill="currentcolor"/>
</svg>
