<svg width="24" height="22" viewBox="0 0 24 22" xmlns="http://www.w3.org/2000/svg">
<path fill-rule="evenodd" clip-rule="evenodd" d="M23.9762 2.14615C24.0282 1.82042 23.9946 1.48625 23.8788 1.17846C23.763 0.870678 23.5692 0.600535 23.3176 0.396183C23.0661 0.191832 22.766 0.0607479 22.4485 0.0165897C22.1311 -0.0275685 21.808 0.0168145 21.5129 0.145115L1.09495 9.00577C-0.328337 9.62356 -0.401173 11.7452 1.09495 12.3851C2.5766 13.0214 4.07963 13.6034 5.60122 14.1302C6.99585 14.6052 8.51704 15.0446 9.73615 15.1688C10.0693 15.5799 10.4884 15.9762 10.9159 16.338C11.569 16.8918 12.3547 17.4615 13.1666 18.0079C14.7929 19.1032 16.597 20.1505 17.8126 20.8323C19.2657 21.6445 21.0054 20.7092 21.2657 19.0762L23.9762 2.14615ZM3.3839 10.6831L21.4424 2.84638L18.9135 18.6479C17.7206 17.9796 16.0024 16.9791 14.4717 15.9478C13.7662 15.481 13.085 14.9761 12.4311 14.4354C12.2563 14.2882 12.0866 14.1347 11.9224 13.9751L16.652 9.10176C16.876 8.87101 17.002 8.55797 17.0021 8.23151C17.0022 7.90506 16.8765 7.59193 16.6526 7.36101C16.4287 7.13009 16.125 7.0003 15.8082 7.00018C15.4915 7.00007 15.1877 7.12964 14.9636 7.3604L9.7851 12.6977C8.90869 12.582 7.68839 12.2473 6.34868 11.792C5.35133 11.4494 4.3631 11.0793 3.3851 10.6819L3.3839 10.6831Z" fill="black"/>
</svg>
