<svg width="22" height="18" viewBox="0 0 22 18" fill="none" xmlns="http://www.w3.org/2000/svg">
<path fill-rule="evenodd" clip-rule="evenodd" d="M18.9661 0.492099C19.2132 0.38809 19.4837 0.352218 19.7494 0.388216C20.0151 0.424214 20.2663 0.530767 20.4768 0.696784C20.6873 0.862801 20.8495 1.08221 20.9465 1.33218C21.0434 1.58215 21.0716 1.85354 21.0281 2.1181L18.7601 15.8751C18.5401 17.2021 17.0841 17.9631 15.8671 17.3021C14.8491 16.7491 13.3371 15.8971 11.9771 15.0081C11.2971 14.5631 9.21411 13.1381 9.47011 12.1241C9.69011 11.2571 13.1901 7.9991 15.1901 6.0621C15.9751 5.3011 15.6171 4.8621 14.6901 5.5621C12.3881 7.3001 8.69211 9.9431 7.47011 10.6871C6.39211 11.3431 5.83011 11.4551 5.15811 11.3431C3.93211 11.1391 2.79511 10.8231 1.86711 10.4381C0.613107 9.9181 0.674107 8.1941 1.86611 7.6921L18.9661 0.492099Z" fill="currentcolor"/>
</svg>
